<mxfile host="app.diagrams.net" agent="Mozilla/5.0 (Windows NT 10.0; Win64; x64) AppleWebKit/537.36 (KHTML, like Gecko) Chrome/138.0.0.0 Safari/537.36" version="28.0.7">
  <diagram name="Página-1" id="Ye-yQkLeZo3UJ6-e2vg-">
    <mxGraphModel dx="2253" dy="777" grid="1" gridSize="10" guides="1" tooltips="1" connect="1" arrows="1" fold="1" page="1" pageScale="1" pageWidth="827" pageHeight="1169" math="0" shadow="0">
      <root>
        <mxCell id="0" />
        <mxCell id="1" parent="0" />
        <mxCell id="ML4OWbwLtwYY3w2N4eXz-3" style="edgeStyle=orthogonalEdgeStyle;rounded=0;orthogonalLoop=1;jettySize=auto;html=1;exitX=1;exitY=0;exitDx=0;exitDy=0;" edge="1" parent="1" source="ML4OWbwLtwYY3w2N4eXz-1" target="ML4OWbwLtwYY3w2N4eXz-2">
          <mxGeometry relative="1" as="geometry" />
        </mxCell>
        <mxCell id="ML4OWbwLtwYY3w2N4eXz-5" style="edgeStyle=orthogonalEdgeStyle;rounded=0;orthogonalLoop=1;jettySize=auto;html=1;exitX=1;exitY=0;exitDx=0;exitDy=0;entryX=0.5;entryY=1;entryDx=0;entryDy=0;" edge="1" parent="1" source="ML4OWbwLtwYY3w2N4eXz-1" target="ML4OWbwLtwYY3w2N4eXz-4">
          <mxGeometry relative="1" as="geometry" />
        </mxCell>
        <mxCell id="ML4OWbwLtwYY3w2N4eXz-8" style="edgeStyle=orthogonalEdgeStyle;rounded=0;orthogonalLoop=1;jettySize=auto;html=1;exitX=0;exitY=0;exitDx=0;exitDy=0;entryX=0.5;entryY=1;entryDx=0;entryDy=0;" edge="1" parent="1" source="ML4OWbwLtwYY3w2N4eXz-1" target="ML4OWbwLtwYY3w2N4eXz-6">
          <mxGeometry relative="1" as="geometry" />
        </mxCell>
        <mxCell id="ML4OWbwLtwYY3w2N4eXz-13" style="edgeStyle=orthogonalEdgeStyle;rounded=0;orthogonalLoop=1;jettySize=auto;html=1;exitX=0.5;exitY=0;exitDx=0;exitDy=0;entryX=0.5;entryY=1;entryDx=0;entryDy=0;" edge="1" parent="1" source="ML4OWbwLtwYY3w2N4eXz-1" target="ML4OWbwLtwYY3w2N4eXz-11">
          <mxGeometry relative="1" as="geometry" />
        </mxCell>
        <mxCell id="ML4OWbwLtwYY3w2N4eXz-15" style="edgeStyle=orthogonalEdgeStyle;rounded=0;orthogonalLoop=1;jettySize=auto;html=1;exitX=0.5;exitY=0;exitDx=0;exitDy=0;" edge="1" parent="1" source="ML4OWbwLtwYY3w2N4eXz-1" target="ML4OWbwLtwYY3w2N4eXz-12">
          <mxGeometry relative="1" as="geometry" />
        </mxCell>
        <mxCell id="ML4OWbwLtwYY3w2N4eXz-16" style="edgeStyle=orthogonalEdgeStyle;rounded=0;orthogonalLoop=1;jettySize=auto;html=1;exitX=0.5;exitY=0;exitDx=0;exitDy=0;entryX=0.5;entryY=1;entryDx=0;entryDy=0;" edge="1" parent="1" source="ML4OWbwLtwYY3w2N4eXz-1" target="ML4OWbwLtwYY3w2N4eXz-10">
          <mxGeometry relative="1" as="geometry" />
        </mxCell>
        <mxCell id="ML4OWbwLtwYY3w2N4eXz-37" style="edgeStyle=orthogonalEdgeStyle;rounded=0;orthogonalLoop=1;jettySize=auto;html=1;exitX=0;exitY=1;exitDx=0;exitDy=0;entryX=0.5;entryY=0;entryDx=0;entryDy=0;" edge="1" parent="1" source="ML4OWbwLtwYY3w2N4eXz-1" target="ML4OWbwLtwYY3w2N4eXz-34">
          <mxGeometry relative="1" as="geometry" />
        </mxCell>
        <mxCell id="ML4OWbwLtwYY3w2N4eXz-61" style="edgeStyle=orthogonalEdgeStyle;rounded=0;orthogonalLoop=1;jettySize=auto;html=1;exitX=1;exitY=1;exitDx=0;exitDy=0;entryX=0;entryY=0;entryDx=0;entryDy=0;" edge="1" parent="1" source="ML4OWbwLtwYY3w2N4eXz-1" target="ML4OWbwLtwYY3w2N4eXz-25">
          <mxGeometry relative="1" as="geometry" />
        </mxCell>
        <mxCell id="ML4OWbwLtwYY3w2N4eXz-62" style="edgeStyle=orthogonalEdgeStyle;rounded=0;orthogonalLoop=1;jettySize=auto;html=1;exitX=1;exitY=0.5;exitDx=0;exitDy=0;entryX=0;entryY=1;entryDx=0;entryDy=0;" edge="1" parent="1" source="ML4OWbwLtwYY3w2N4eXz-1" target="ML4OWbwLtwYY3w2N4eXz-20">
          <mxGeometry relative="1" as="geometry" />
        </mxCell>
        <mxCell id="ML4OWbwLtwYY3w2N4eXz-1" value="SOLDADOS" style="ellipse;whiteSpace=wrap;html=1;" vertex="1" parent="1">
          <mxGeometry x="354" y="220" width="120" height="80" as="geometry" />
        </mxCell>
        <mxCell id="ML4OWbwLtwYY3w2N4eXz-2" value="NOMBRE" style="ellipse;whiteSpace=wrap;html=1;" vertex="1" parent="1">
          <mxGeometry x="570" y="80" width="120" height="80" as="geometry" />
        </mxCell>
        <mxCell id="ML4OWbwLtwYY3w2N4eXz-4" value="CODIGO&amp;nbsp;&lt;div&gt;SOLDADO&lt;/div&gt;" style="ellipse;whiteSpace=wrap;html=1;" vertex="1" parent="1">
          <mxGeometry x="760" y="80" width="120" height="80" as="geometry" />
        </mxCell>
        <mxCell id="ML4OWbwLtwYY3w2N4eXz-6" value="GRADO" style="ellipse;whiteSpace=wrap;html=1;" vertex="1" parent="1">
          <mxGeometry x="140" y="80" width="120" height="80" as="geometry" />
        </mxCell>
        <mxCell id="ML4OWbwLtwYY3w2N4eXz-7" value="APELLIDOS" style="ellipse;whiteSpace=wrap;html=1;" vertex="1" parent="1">
          <mxGeometry x="-130" y="80" width="120" height="80" as="geometry" />
        </mxCell>
        <mxCell id="ML4OWbwLtwYY3w2N4eXz-9" style="edgeStyle=orthogonalEdgeStyle;rounded=0;orthogonalLoop=1;jettySize=auto;html=1;exitX=0;exitY=0;exitDx=0;exitDy=0;entryX=0.433;entryY=1.025;entryDx=0;entryDy=0;entryPerimeter=0;" edge="1" parent="1" source="ML4OWbwLtwYY3w2N4eXz-1" target="ML4OWbwLtwYY3w2N4eXz-7">
          <mxGeometry relative="1" as="geometry">
            <Array as="points">
              <mxPoint x="-78" y="232" />
            </Array>
          </mxGeometry>
        </mxCell>
        <mxCell id="ML4OWbwLtwYY3w2N4eXz-10" value="ID:CUER" style="ellipse;whiteSpace=wrap;html=1;aspect=fixed;" vertex="1" parent="1">
          <mxGeometry x="280" y="40" width="80" height="80" as="geometry" />
        </mxCell>
        <mxCell id="ML4OWbwLtwYY3w2N4eXz-11" value="ID:CUAR" style="ellipse;whiteSpace=wrap;html=1;aspect=fixed;" vertex="1" parent="1">
          <mxGeometry x="374" y="10" width="80" height="80" as="geometry" />
        </mxCell>
        <mxCell id="ML4OWbwLtwYY3w2N4eXz-12" value="ID:COMP" style="ellipse;whiteSpace=wrap;html=1;aspect=fixed;" vertex="1" parent="1">
          <mxGeometry x="480" y="40" width="80" height="80" as="geometry" />
        </mxCell>
        <mxCell id="ML4OWbwLtwYY3w2N4eXz-14" style="edgeStyle=orthogonalEdgeStyle;rounded=0;orthogonalLoop=1;jettySize=auto;html=1;exitX=1;exitY=0;exitDx=0;exitDy=0;entryX=0.833;entryY=0.075;entryDx=0;entryDy=0;entryPerimeter=0;" edge="1" parent="1" source="ML4OWbwLtwYY3w2N4eXz-1" target="ML4OWbwLtwYY3w2N4eXz-1">
          <mxGeometry relative="1" as="geometry" />
        </mxCell>
        <mxCell id="ML4OWbwLtwYY3w2N4eXz-23" style="edgeStyle=orthogonalEdgeStyle;rounded=0;orthogonalLoop=1;jettySize=auto;html=1;exitX=1;exitY=0.5;exitDx=0;exitDy=0;entryX=0;entryY=0.5;entryDx=0;entryDy=0;" edge="1" parent="1" source="ML4OWbwLtwYY3w2N4eXz-20" target="ML4OWbwLtwYY3w2N4eXz-22">
          <mxGeometry relative="1" as="geometry" />
        </mxCell>
        <mxCell id="ML4OWbwLtwYY3w2N4eXz-26" style="edgeStyle=orthogonalEdgeStyle;rounded=0;orthogonalLoop=1;jettySize=auto;html=1;exitX=0.5;exitY=1;exitDx=0;exitDy=0;" edge="1" parent="1" source="ML4OWbwLtwYY3w2N4eXz-20" target="ML4OWbwLtwYY3w2N4eXz-25">
          <mxGeometry relative="1" as="geometry" />
        </mxCell>
        <mxCell id="ML4OWbwLtwYY3w2N4eXz-20" value="COMPAÑIAS" style="ellipse;whiteSpace=wrap;html=1;" vertex="1" parent="1">
          <mxGeometry x="910" y="170" width="120" height="80" as="geometry" />
        </mxCell>
        <mxCell id="ML4OWbwLtwYY3w2N4eXz-21" value="NUMERO COMPAÑIA" style="ellipse;whiteSpace=wrap;html=1;" vertex="1" parent="1">
          <mxGeometry x="1070" y="60" width="120" height="80" as="geometry" />
        </mxCell>
        <mxCell id="ML4OWbwLtwYY3w2N4eXz-22" value="ACTIVIDAD PRICIPAL" style="ellipse;whiteSpace=wrap;html=1;" vertex="1" parent="1">
          <mxGeometry x="1080" y="200" width="120" height="80" as="geometry" />
        </mxCell>
        <mxCell id="ML4OWbwLtwYY3w2N4eXz-24" style="edgeStyle=orthogonalEdgeStyle;rounded=0;orthogonalLoop=1;jettySize=auto;html=1;exitX=1;exitY=0.5;exitDx=0;exitDy=0;entryX=-0.025;entryY=0.413;entryDx=0;entryDy=0;entryPerimeter=0;" edge="1" parent="1" source="ML4OWbwLtwYY3w2N4eXz-20" target="ML4OWbwLtwYY3w2N4eXz-21">
          <mxGeometry relative="1" as="geometry" />
        </mxCell>
        <mxCell id="ML4OWbwLtwYY3w2N4eXz-30" style="edgeStyle=orthogonalEdgeStyle;rounded=0;orthogonalLoop=1;jettySize=auto;html=1;exitX=0.5;exitY=1;exitDx=0;exitDy=0;" edge="1" parent="1" source="ML4OWbwLtwYY3w2N4eXz-25" target="ML4OWbwLtwYY3w2N4eXz-28">
          <mxGeometry relative="1" as="geometry" />
        </mxCell>
        <mxCell id="ML4OWbwLtwYY3w2N4eXz-31" style="edgeStyle=orthogonalEdgeStyle;rounded=0;orthogonalLoop=1;jettySize=auto;html=1;exitX=1;exitY=0.5;exitDx=0;exitDy=0;" edge="1" parent="1" source="ML4OWbwLtwYY3w2N4eXz-25" target="ML4OWbwLtwYY3w2N4eXz-29">
          <mxGeometry relative="1" as="geometry" />
        </mxCell>
        <mxCell id="ML4OWbwLtwYY3w2N4eXz-32" style="edgeStyle=orthogonalEdgeStyle;rounded=0;orthogonalLoop=1;jettySize=auto;html=1;exitX=0;exitY=0.5;exitDx=0;exitDy=0;entryX=1;entryY=0.5;entryDx=0;entryDy=0;" edge="1" parent="1" source="ML4OWbwLtwYY3w2N4eXz-25" target="ML4OWbwLtwYY3w2N4eXz-27">
          <mxGeometry relative="1" as="geometry" />
        </mxCell>
        <mxCell id="ML4OWbwLtwYY3w2N4eXz-25" value="CUARTELES" style="ellipse;whiteSpace=wrap;html=1;" vertex="1" parent="1">
          <mxGeometry x="910" y="430" width="120" height="80" as="geometry" />
        </mxCell>
        <mxCell id="ML4OWbwLtwYY3w2N4eXz-27" value="UBICACION" style="ellipse;whiteSpace=wrap;html=1;" vertex="1" parent="1">
          <mxGeometry x="720" y="430" width="120" height="80" as="geometry" />
        </mxCell>
        <mxCell id="ML4OWbwLtwYY3w2N4eXz-28" value="CODIGO&amp;nbsp;&lt;div&gt;CUARTEL&lt;/div&gt;" style="ellipse;whiteSpace=wrap;html=1;" vertex="1" parent="1">
          <mxGeometry x="910" y="560" width="120" height="80" as="geometry" />
        </mxCell>
        <mxCell id="ML4OWbwLtwYY3w2N4eXz-29" value="NOMBRE" style="ellipse;whiteSpace=wrap;html=1;" vertex="1" parent="1">
          <mxGeometry x="1100" y="430" width="120" height="80" as="geometry" />
        </mxCell>
        <mxCell id="ML4OWbwLtwYY3w2N4eXz-38" style="edgeStyle=orthogonalEdgeStyle;rounded=0;orthogonalLoop=1;jettySize=auto;html=1;exitX=1;exitY=0.5;exitDx=0;exitDy=0;entryX=0;entryY=0.5;entryDx=0;entryDy=0;" edge="1" parent="1" source="ML4OWbwLtwYY3w2N4eXz-34" target="ML4OWbwLtwYY3w2N4eXz-35">
          <mxGeometry relative="1" as="geometry" />
        </mxCell>
        <mxCell id="ML4OWbwLtwYY3w2N4eXz-39" style="edgeStyle=orthogonalEdgeStyle;rounded=0;orthogonalLoop=1;jettySize=auto;html=1;exitX=0;exitY=0.5;exitDx=0;exitDy=0;entryX=1;entryY=0.5;entryDx=0;entryDy=0;" edge="1" parent="1" source="ML4OWbwLtwYY3w2N4eXz-34" target="ML4OWbwLtwYY3w2N4eXz-36">
          <mxGeometry relative="1" as="geometry" />
        </mxCell>
        <mxCell id="ML4OWbwLtwYY3w2N4eXz-34" value="CUEROS&lt;div&gt;DEL EJERCITO&lt;/div&gt;" style="ellipse;whiteSpace=wrap;html=1;" vertex="1" parent="1">
          <mxGeometry x="220" y="440" width="120" height="80" as="geometry" />
        </mxCell>
        <mxCell id="ML4OWbwLtwYY3w2N4eXz-35" value="DENOMINACION" style="ellipse;whiteSpace=wrap;html=1;" vertex="1" parent="1">
          <mxGeometry x="400" y="460" width="120" height="80" as="geometry" />
        </mxCell>
        <mxCell id="ML4OWbwLtwYY3w2N4eXz-36" value="CODIGO&lt;div&gt;DE CUERPO&lt;/div&gt;" style="ellipse;whiteSpace=wrap;html=1;" vertex="1" parent="1">
          <mxGeometry x="40" y="460" width="120" height="80" as="geometry" />
        </mxCell>
        <mxCell id="ML4OWbwLtwYY3w2N4eXz-41" style="edgeStyle=orthogonalEdgeStyle;rounded=0;orthogonalLoop=1;jettySize=auto;html=1;exitX=1;exitY=0.5;exitDx=0;exitDy=0;" edge="1" parent="1" source="ML4OWbwLtwYY3w2N4eXz-40" target="ML4OWbwLtwYY3w2N4eXz-1">
          <mxGeometry relative="1" as="geometry" />
        </mxCell>
        <mxCell id="ML4OWbwLtwYY3w2N4eXz-44" style="edgeStyle=orthogonalEdgeStyle;rounded=0;orthogonalLoop=1;jettySize=auto;html=1;exitX=0;exitY=0;exitDx=0;exitDy=0;entryX=1;entryY=0.5;entryDx=0;entryDy=0;" edge="1" parent="1" source="ML4OWbwLtwYY3w2N4eXz-40" target="ML4OWbwLtwYY3w2N4eXz-42">
          <mxGeometry relative="1" as="geometry" />
        </mxCell>
        <mxCell id="ML4OWbwLtwYY3w2N4eXz-45" style="edgeStyle=orthogonalEdgeStyle;rounded=0;orthogonalLoop=1;jettySize=auto;html=1;exitX=0;exitY=1;exitDx=0;exitDy=0;entryX=1;entryY=0.5;entryDx=0;entryDy=0;" edge="1" parent="1" source="ML4OWbwLtwYY3w2N4eXz-40" target="ML4OWbwLtwYY3w2N4eXz-43">
          <mxGeometry relative="1" as="geometry" />
        </mxCell>
        <mxCell id="ML4OWbwLtwYY3w2N4eXz-40" value="SERVICIOS" style="ellipse;whiteSpace=wrap;html=1;" vertex="1" parent="1">
          <mxGeometry x="-290" y="220" width="120" height="80" as="geometry" />
        </mxCell>
        <mxCell id="ML4OWbwLtwYY3w2N4eXz-42" value="CODIGO SERVICIO" style="ellipse;whiteSpace=wrap;html=1;" vertex="1" parent="1">
          <mxGeometry x="-460" y="110" width="120" height="80" as="geometry" />
        </mxCell>
        <mxCell id="ML4OWbwLtwYY3w2N4eXz-43" value="ACTIVIDAD" style="ellipse;whiteSpace=wrap;html=1;" vertex="1" parent="1">
          <mxGeometry x="-460" y="300" width="120" height="80" as="geometry" />
        </mxCell>
        <mxCell id="ML4OWbwLtwYY3w2N4eXz-48" style="edgeStyle=orthogonalEdgeStyle;rounded=0;orthogonalLoop=1;jettySize=auto;html=1;exitX=0.5;exitY=1;exitDx=0;exitDy=0;entryX=0.5;entryY=0;entryDx=0;entryDy=0;" edge="1" parent="1" source="ML4OWbwLtwYY3w2N4eXz-46" target="ML4OWbwLtwYY3w2N4eXz-47">
          <mxGeometry relative="1" as="geometry" />
        </mxCell>
        <mxCell id="ML4OWbwLtwYY3w2N4eXz-46" value="V&lt;div&gt;-&lt;/div&gt;&lt;div&gt;V&lt;/div&gt;" style="rhombus;whiteSpace=wrap;html=1;" vertex="1" parent="1">
          <mxGeometry x="-100" y="260" width="80" height="80" as="geometry" />
        </mxCell>
        <mxCell id="ML4OWbwLtwYY3w2N4eXz-47" value="SER_SOLD" style="ellipse;whiteSpace=wrap;html=1;" vertex="1" parent="1">
          <mxGeometry x="-120" y="390" width="120" height="80" as="geometry" />
        </mxCell>
        <mxCell id="ML4OWbwLtwYY3w2N4eXz-51" style="edgeStyle=orthogonalEdgeStyle;rounded=0;orthogonalLoop=1;jettySize=auto;html=1;exitX=1;exitY=0.25;exitDx=0;exitDy=0;entryX=0;entryY=0;entryDx=0;entryDy=0;" edge="1" parent="1" source="ML4OWbwLtwYY3w2N4eXz-49" target="ML4OWbwLtwYY3w2N4eXz-47">
          <mxGeometry relative="1" as="geometry" />
        </mxCell>
        <mxCell id="ML4OWbwLtwYY3w2N4eXz-49" value="ID:SER" style="rounded=1;whiteSpace=wrap;html=1;" vertex="1" parent="1">
          <mxGeometry x="-230" y="370" width="80" height="30" as="geometry" />
        </mxCell>
        <mxCell id="ML4OWbwLtwYY3w2N4eXz-50" value="ID:SOLD" style="rounded=1;whiteSpace=wrap;html=1;" vertex="1" parent="1">
          <mxGeometry x="-230" y="450" width="80" height="30" as="geometry" />
        </mxCell>
        <mxCell id="ML4OWbwLtwYY3w2N4eXz-53" style="edgeStyle=orthogonalEdgeStyle;rounded=0;orthogonalLoop=1;jettySize=auto;html=1;exitX=1;exitY=0.75;exitDx=0;exitDy=0;entryX=0.208;entryY=0.913;entryDx=0;entryDy=0;entryPerimeter=0;" edge="1" parent="1" source="ML4OWbwLtwYY3w2N4eXz-50" target="ML4OWbwLtwYY3w2N4eXz-47">
          <mxGeometry relative="1" as="geometry" />
        </mxCell>
        <mxCell id="ML4OWbwLtwYY3w2N4eXz-58" style="edgeStyle=orthogonalEdgeStyle;rounded=0;orthogonalLoop=1;jettySize=auto;html=1;exitX=1;exitY=0.5;exitDx=0;exitDy=0;entryX=0;entryY=0.5;entryDx=0;entryDy=0;" edge="1" parent="1" source="ML4OWbwLtwYY3w2N4eXz-54" target="ML4OWbwLtwYY3w2N4eXz-57">
          <mxGeometry relative="1" as="geometry" />
        </mxCell>
        <mxCell id="ML4OWbwLtwYY3w2N4eXz-54" value="V&lt;div&gt;-&lt;/div&gt;&lt;div&gt;V&lt;/div&gt;" style="rhombus;whiteSpace=wrap;html=1;" vertex="1" parent="1">
          <mxGeometry x="970" y="320" width="80" height="80" as="geometry" />
        </mxCell>
        <mxCell id="ML4OWbwLtwYY3w2N4eXz-55" value="ID:COMP" style="rounded=1;whiteSpace=wrap;html=1;" vertex="1" parent="1">
          <mxGeometry x="1250" y="310" width="80" height="30" as="geometry" />
        </mxCell>
        <mxCell id="ML4OWbwLtwYY3w2N4eXz-56" value="ID:CUAR" style="rounded=1;whiteSpace=wrap;html=1;" vertex="1" parent="1">
          <mxGeometry x="1250" y="380" width="80" height="30" as="geometry" />
        </mxCell>
        <mxCell id="ML4OWbwLtwYY3w2N4eXz-59" style="edgeStyle=orthogonalEdgeStyle;rounded=0;orthogonalLoop=1;jettySize=auto;html=1;exitX=1;exitY=0;exitDx=0;exitDy=0;entryX=0;entryY=0.25;entryDx=0;entryDy=0;" edge="1" parent="1" source="ML4OWbwLtwYY3w2N4eXz-57" target="ML4OWbwLtwYY3w2N4eXz-55">
          <mxGeometry relative="1" as="geometry" />
        </mxCell>
        <mxCell id="ML4OWbwLtwYY3w2N4eXz-60" style="edgeStyle=orthogonalEdgeStyle;rounded=0;orthogonalLoop=1;jettySize=auto;html=1;exitX=1;exitY=1;exitDx=0;exitDy=0;entryX=0;entryY=0.5;entryDx=0;entryDy=0;" edge="1" parent="1" source="ML4OWbwLtwYY3w2N4eXz-57" target="ML4OWbwLtwYY3w2N4eXz-56">
          <mxGeometry relative="1" as="geometry" />
        </mxCell>
        <mxCell id="ML4OWbwLtwYY3w2N4eXz-57" value="COMP_CUAR" style="ellipse;whiteSpace=wrap;html=1;" vertex="1" parent="1">
          <mxGeometry x="1090" y="320" width="120" height="80" as="geometry" />
        </mxCell>
        <mxCell id="ML4OWbwLtwYY3w2N4eXz-63" value="UNO" style="text;html=1;align=center;verticalAlign=middle;resizable=0;points=[];autosize=1;strokeColor=none;fillColor=none;" vertex="1" parent="1">
          <mxGeometry x="845" y="208" width="50" height="30" as="geometry" />
        </mxCell>
        <mxCell id="ML4OWbwLtwYY3w2N4eXz-64" value="UNO" style="text;html=1;align=center;verticalAlign=middle;resizable=0;points=[];autosize=1;strokeColor=none;fillColor=none;" vertex="1" parent="1">
          <mxGeometry x="845" y="238" width="50" height="30" as="geometry" />
        </mxCell>
        <mxCell id="ML4OWbwLtwYY3w2N4eXz-65" value="UNO" style="text;html=1;align=center;verticalAlign=middle;resizable=0;points=[];autosize=1;strokeColor=none;fillColor=none;" vertex="1" parent="1">
          <mxGeometry x="880" y="390" width="50" height="30" as="geometry" />
        </mxCell>
        <mxCell id="ML4OWbwLtwYY3w2N4eXz-66" value="UNO" style="text;html=1;align=center;verticalAlign=middle;resizable=0;points=[];autosize=1;strokeColor=none;fillColor=none;" vertex="1" parent="1">
          <mxGeometry x="920" y="390" width="50" height="30" as="geometry" />
        </mxCell>
        <mxCell id="ML4OWbwLtwYY3w2N4eXz-67" value="UNO" style="text;html=1;align=center;verticalAlign=middle;resizable=0;points=[];autosize=1;strokeColor=none;fillColor=none;" vertex="1" parent="1">
          <mxGeometry x="470" y="268" width="50" height="30" as="geometry" />
        </mxCell>
        <mxCell id="ML4OWbwLtwYY3w2N4eXz-68" value="VARIOS" style="text;html=1;align=center;verticalAlign=middle;resizable=0;points=[];autosize=1;strokeColor=none;fillColor=none;" vertex="1" parent="1">
          <mxGeometry x="450" y="285" width="70" height="30" as="geometry" />
        </mxCell>
        <mxCell id="ML4OWbwLtwYY3w2N4eXz-69" value="UNO" style="text;html=1;align=center;verticalAlign=middle;resizable=0;points=[];autosize=1;strokeColor=none;fillColor=none;" vertex="1" parent="1">
          <mxGeometry x="560" y="238" width="50" height="30" as="geometry" />
        </mxCell>
        <mxCell id="ML4OWbwLtwYY3w2N4eXz-70" value="VARIOS" style="text;html=1;align=center;verticalAlign=middle;resizable=0;points=[];autosize=1;strokeColor=none;fillColor=none;" vertex="1" parent="1">
          <mxGeometry x="550" y="255" width="70" height="30" as="geometry" />
        </mxCell>
        <mxCell id="ML4OWbwLtwYY3w2N4eXz-71" value="UNO" style="text;html=1;align=center;verticalAlign=middle;resizable=0;points=[];autosize=1;strokeColor=none;fillColor=none;" vertex="1" parent="1">
          <mxGeometry x="280" y="408" width="50" height="30" as="geometry" />
        </mxCell>
        <mxCell id="ML4OWbwLtwYY3w2N4eXz-72" value="UNO" style="text;html=1;align=center;verticalAlign=middle;resizable=0;points=[];autosize=1;strokeColor=none;fillColor=none;" vertex="1" parent="1">
          <mxGeometry x="225" y="408" width="50" height="30" as="geometry" />
        </mxCell>
        <mxCell id="ML4OWbwLtwYY3w2N4eXz-73" value="VARIOS" style="text;html=1;align=center;verticalAlign=middle;resizable=0;points=[];autosize=1;strokeColor=none;fillColor=none;" vertex="1" parent="1">
          <mxGeometry x="275" y="268" width="70" height="30" as="geometry" />
        </mxCell>
        <mxCell id="ML4OWbwLtwYY3w2N4eXz-74" value="UNO" style="text;html=1;align=center;verticalAlign=middle;resizable=0;points=[];autosize=1;strokeColor=none;fillColor=none;" vertex="1" parent="1">
          <mxGeometry x="285" y="288" width="50" height="30" as="geometry" />
        </mxCell>
      </root>
    </mxGraphModel>
  </diagram>
</mxfile>
